<svg width="286" height="225" viewBox="0 0 286 225" fill="none" xmlns="http://www.w3.org/2000/svg">
<path fill-rule="evenodd" clip-rule="evenodd" d="M175.031 59.7608C178.488 57.8358 180.506 54.3848 182.504 50.9688C182.804 50.4551 183.104 49.9423 183.408 49.4356C183.612 49.0963 183.835 48.7465 184.062 48.39V48.3897C184.661 47.4477 185.291 46.458 185.684 45.489C185.856 45.0652 186.005 44.4434 186.154 43.815C186.332 43.0738 186.511 42.3234 186.733 41.8789C187.219 40.908 190.904 40.466 193.415 40.1652C194.244 40.0657 194.945 39.9819 195.36 39.8989C199.772 39.0208 205.046 38.494 208.651 41.9202C209.508 42.7345 210.468 43.4855 211.432 44.2391C212.586 45.1424 213.746 46.0494 214.738 47.0734C216.332 48.7179 218.478 51.4842 219.234 53.6811C215.35 54.4236 208.896 56.6981 207.35 60.7409C201.656 55.5572 199.253 64.1912 197.992 68.7217C197.915 68.9982 197.842 69.2596 197.773 69.5014C194.673 68.1705 194.834 64.1207 194.952 61.1552V61.1549C194.969 60.7393 194.984 60.3454 194.99 59.9829C194.998 59.4453 195.08 58.8852 195.161 58.3387C195.43 56.5068 195.676 54.8299 193.038 54.6822C190.478 54.5396 187.992 55.5734 185.684 56.5414C182.804 57.7497 179.782 59.5568 177.455 61.6327L175.031 59.7608ZM169.437 51.6853C169.436 51.7838 169.435 51.8819 169.434 51.9801C169.425 52.8535 169.417 53.724 169.684 54.5659C169.839 55.0527 169.841 55.7643 169.844 56.4477C169.845 56.943 169.847 57.4237 169.906 57.7932C167.406 57.0383 162.76 55.9184 160.208 56.9367C157.767 57.9098 157.46 62.4108 157.374 64.6001C157.352 65.1532 157.43 65.8176 157.511 66.507C157.649 67.6771 157.795 68.9203 157.477 69.8191C157.231 70.512 157.239 70.717 157.256 70.7668C157.213 70.7424 157.022 70.7351 156.32 71.2374C156.008 71.4607 155.667 71.6386 155.325 71.8172C154.918 72.03 154.508 72.2442 154.14 72.5384C153.161 73.3215 152.827 74.1879 152.426 75.2275C152.323 75.4956 152.215 75.7755 152.09 76.0684C151.5 77.4555 149.927 78.6883 148.172 78.6381C148.395 78.2365 148.632 77.8393 148.869 77.4432C150.126 75.3364 151.364 73.2612 150.418 70.7535C149.586 68.548 151 65.9672 152.158 63.8538L152.226 63.7299C152.297 63.6003 152.499 63.3121 152.771 62.9255C153.979 61.2041 156.557 57.5327 155.004 57.2207C153.9 56.9986 151.517 61.5714 150.637 63.2622C150.532 63.463 150.449 63.6235 150.391 63.7299C148.878 62.7155 148.199 61.465 149.363 59.9371C149.775 59.3967 150.23 58.8925 150.686 58.387C151.221 57.7948 151.756 57.201 152.226 56.5456C152.64 55.9677 153.051 55.3567 153.468 54.7381C154.472 53.2455 155.509 51.7066 156.695 50.4684C159.643 47.393 164.789 45.2993 169.034 45.2806C168.939 46.4787 169.077 47.6297 169.216 48.7964C169.329 49.7384 169.443 50.6902 169.437 51.6853ZM157.266 70.7805C157.267 70.7786 157.265 70.7722 157.256 70.7668C157.26 70.7795 157.265 70.7821 157.266 70.7805ZM181.409 100.823C182.246 99.0797 182.977 97.556 183.408 96.7862C186.017 92.1299 188.601 87.5129 191.047 82.7702C189.107 83.5038 187.464 84.6285 185.8 85.7681C185.548 85.94 185.297 86.1118 185.044 86.2831C184.167 86.8762 183.21 87.4116 182.249 87.9498C180.805 88.758 179.35 89.5726 178.136 90.5976C177.861 90.8295 177.639 91.0865 177.427 91.3318C176.943 91.8913 176.513 92.3878 175.639 92.3793C175.042 92.3735 174.196 91.7616 173.439 91.2142C172.999 90.8956 172.589 90.5988 172.276 90.4565C171.659 90.1769 171.151 89.8106 170.648 89.4484C170.081 89.0401 169.522 88.637 168.822 88.3682C168.387 88.2008 168.032 88.1448 167.704 88.0934C167.15 88.0063 166.676 87.9317 166.034 87.3522C165.62 89.7785 159.87 88.6357 156.14 87.8942C154.901 87.6479 153.885 87.4462 153.361 87.4338C153.162 87.4294 152.955 87.4233 152.743 87.417C150.879 87.3633 148.562 87.2966 146.938 87.9882C145.694 88.5178 144.224 89.7143 142.948 90.7523C142.456 91.1535 141.992 91.5307 141.582 91.8369C139.558 93.3464 138.115 95.2707 136.625 97.3603C134.713 100.041 137.568 99.7825 139.628 99.596C139.77 99.583 139.908 99.5706 140.041 99.5595C144.737 99.1639 149.3 99.9483 153.826 101.012C157.869 101.962 161.546 103.421 165.417 104.962C166.134 105.248 167.437 105.919 168.907 106.676C171.902 108.218 175.591 110.118 176.422 109.836C177.214 109.568 179.567 104.662 181.409 100.823Z" fill="#EE9211"/>
<path fill-rule="evenodd" clip-rule="evenodd" d="M207.646 70.6193C209.276 70.5367 210.898 70.8976 212.528 70.7403C211.113 69.5178 209.698 68.2956 208.283 67.0734C207.658 68.1621 207.612 69.4009 207.646 70.6193ZM168.979 45.4892C164.76 45.5076 159.614 47.6093 156.684 50.6787C155.131 52.3053 153.848 54.4899 152.535 56.3173C151.654 57.5437 150.794 58.7272 149.725 59.8045C148.166 61.3753 148.613 61.7343 150.369 62.9168C150.925 61.8836 153.873 56.3593 155.108 56.6077C156.985 56.9858 153.36 62.8208 152.964 63.5477C151.791 65.6986 149.897 68.7029 150.748 70.9713C151.871 73.9654 150.243 75.6721 148.829 78.2236C150.314 78.2662 150.46 77.6921 150.972 76.4362C151.629 74.8223 152.346 73.4739 153.735 72.3578C154.811 71.494 156.571 71.1302 157.077 70.0868C157.702 68.7972 157.309 66.2508 157.36 64.816C157.437 62.6359 157.443 57.4824 159.865 56.514C162.402 55.4989 166.965 56.4555 169.445 57.2072C169.135 55.2861 168.158 54.0311 168.172 51.8964C168.186 49.6617 168.807 47.668 168.979 45.4892ZM136.571 81.1412C138.777 80.4482 140.869 79.7181 143.14 79.246C145.516 78.7517 145.674 78.1862 147.014 76.1652C148.029 74.6332 149.261 73.4393 148.973 71.5632C148.789 70.3597 148.124 69.7736 148.324 68.4201C148.448 67.5814 148.843 66.6657 149.128 65.868C149.478 64.8894 150.202 63.7797 148.517 63.7311C147.587 63.7044 147.541 64.1914 146.911 65.0089C145.749 66.519 144.412 67.8902 143.175 69.3383C141.027 71.853 138.75 74.529 136.352 76.8565C133.713 79.4173 131.435 82.5064 129.729 85.7851C129.413 86.3907 127.498 89.9569 128.315 90.6562C129.066 91.2986 133.24 89.8006 134.001 89.6256C137.287 88.8691 141.016 88.599 144.121 87.225C145.702 86.5247 149.192 85.6892 150.442 84.6061C151.603 83.5993 151.551 81.1599 150.877 79.7407C148.991 80.9045 135.355 85.2955 136.571 81.1412ZM177.622 61.1268C179.824 59.1542 182.427 57.5716 185.146 56.399C187.577 55.3502 190.598 54.1811 193.304 54.3631C196.675 54.5896 195.266 57.2829 195.254 59.5761C195.238 62.6194 193.894 67.0031 197.557 68.5818C198.753 64.3684 201.273 54.4044 207.312 59.9256C208.855 55.8741 214.359 54.5029 218.235 53.7588C217.532 51.7118 215.398 49.859 213.92 48.3225C212.069 46.4007 210.609 44.1478 208.755 42.2626C205.094 38.5387 198.46 39.7345 193.824 40.6629C192.277 40.9723 187.791 41.3612 187.042 42.4884C186.571 43.1953 186.834 44.9224 186.485 45.7869C186.005 46.9777 185.185 48.0817 184.527 49.1816C182.126 53.1952 179.683 57.2349 175.573 59.5332L177.622 61.1268ZM191.06 82.7494C188.886 83.5767 187.287 84.9603 185.358 86.1254C183.02 87.5382 180.278 88.8615 178.18 90.6063C177.412 91.2446 176.981 92.3471 175.921 92.4185C174.999 92.4808 173.595 91.4187 172.777 91.0473C171.406 90.423 170.097 89.4772 168.719 88.9209C167.587 88.4637 167.086 88.5571 166.106 87.6678C165.557 90.912 155.56 87.8797 153.463 87.8302C151.523 87.7844 148.861 88.0125 147.055 88.7859C145.335 89.5226 143.99 91.1448 142.517 92.2498C140.498 93.7653 138.572 95.2979 137.086 97.3954C135.046 100.272 138.123 99.4577 140.174 99.2839C144.857 98.8868 149.413 99.993 153.927 101.061C157.962 102.015 161.948 103.16 165.811 104.707C167.983 105.577 170.269 106.377 172.313 107.508C173.39 108.105 175.137 109.565 176.373 109.144C177.506 108.759 178.636 105.536 179.323 104.248C180.658 101.75 182.062 99.2931 183.44 96.8188C186.042 92.145 188.62 87.5103 191.06 82.7494ZM164.307 144.608C165.647 143.845 167.831 144.05 169.312 143.73C170.986 143.369 172.67 142.78 174.266 142.166C175.883 141.545 177.41 140.909 178.888 140.131C179.563 139.776 180.464 139.426 181.088 138.932C181.591 138.535 181.774 137.796 182.238 137.435C183.449 136.494 183.804 137.084 183.967 135.268C184.143 133.296 183.027 132.178 181.638 130.702C180.394 129.381 178.779 128.239 177.216 127.31C176.525 126.899 175.787 126.436 175.081 126.044C174.014 125.45 172.584 124.462 172.024 125.737C173.19 126.032 173.447 127.51 172.395 128.041C171.817 128.332 170.942 127.904 170.29 128.214C169.284 128.692 168.316 130.028 167.454 130.747C164.627 133.107 161.924 133.993 158.223 134.182C150.491 134.577 142.394 133.703 134.811 132.566C132.859 132.273 130.911 132.591 128.941 132.521C127.024 132.453 125.025 132.037 123.141 131.716C119.512 131.098 115.687 130.589 112.114 129.679C107.794 128.579 103.458 127.155 99.4011 125.312C95.51 123.543 91.1118 120.621 86.7411 120.396C88.6063 122.207 91.401 122.905 93.6445 124.098C95.4779 125.073 98.3454 125.698 99.504 127.304C100.258 128.35 100.636 130.27 101.206 131.495C101.836 132.852 102.417 134.23 103 135.607C103.586 136.992 104.197 138.378 104.672 139.804C104.967 140.689 105.094 142.524 105.789 143.13C106.899 144.095 110.614 144.524 112.11 144.845C114.902 145.445 118.087 145.366 120.935 145.407C122.113 145.424 123.299 145.584 124.424 145.605C126.003 145.635 125.853 145.364 125.83 144.004C125.817 143.187 125.834 141.702 126.935 142.374C127.685 142.833 127.169 144.863 127.03 145.584C133.317 146.206 139.877 146.518 146.134 146.31C152.288 146.106 158.228 145.319 164.307 144.608ZM192.7 130.293C193.809 122.392 195.161 114.359 196.674 106.559C198.203 98.6783 200.042 90.8688 202.11 83.0172C200.744 82.6928 199.378 82.3694 198.012 82.0457C197.961 83.7 197.397 85.137 197.156 86.7837C196.824 89.0565 196.19 91.2637 195.81 93.5292C195.089 97.8355 193.752 102.049 192.574 106.249C191.373 110.53 190.972 114.941 189.869 119.243C188.96 122.788 188.496 126.693 187.988 130.337C186.756 139.178 185.002 148.036 183.666 156.881C182.414 165.174 182.288 173.635 182.36 182.005C182.405 187.116 183.191 192.211 183.15 197.328C183.139 198.593 183.247 199.854 183.313 201.117C183.36 202.008 182.877 204.478 183.286 205.225C183.546 205.697 184.659 206.133 185.053 206.789C185.676 207.827 185.807 209.068 186.808 209.854C187.619 206.608 187.236 202.324 187.059 199.011C186.887 195.82 187.22 192.521 187.286 189.28C187.414 182.923 187.754 176.659 188.082 170.298C188.443 163.323 189.467 156.178 190.468 149.255C191.378 142.96 191.985 136.554 192.7 130.293ZM163.007 31.2031C162.567 31.1625 162.127 31.1221 161.687 31.0814C161.753 32.0009 161.557 33.49 162.21 33.9694C162.705 34.3329 163.708 34.2137 164.308 34.3297C166.276 34.7113 168.556 35.0302 170.509 34.3354C171.268 34.0654 170.78 33.6425 171.825 33.8182C173.084 34.0304 172.624 34.228 172.988 35.0067C173.268 35.6078 173.412 36.6309 173.73 37.3524C174.155 38.3182 175.017 40.0465 174.649 41.1617C174.291 42.2457 172.954 42.5733 172.386 43.8009C171.963 44.7137 172.063 46.0404 171.844 47.0457C171.551 48.3864 171.181 49.722 171.017 51.0875C170.811 52.8079 170.882 54.8263 173.031 55.0932C175.025 55.3413 176.451 54.7056 177.789 53.2648C180.343 50.5144 183.26 46.632 184.76 43.1722C184.935 42.768 185.367 42.0935 185.307 41.6608C185.188 40.8049 185.136 41.6713 184.862 41.0769C184.601 40.5085 184.192 39.9928 183.951 39.3622C183.084 37.0966 182.47 34.7217 182.123 32.3234C181.965 31.2368 181.912 30.1636 181.94 29.0665C181.948 28.692 182.175 27.567 182.04 27.3106C181.902 27.0507 181.183 26.9309 180.959 26.6729C180.544 26.1948 179.831 24.8448 179.371 24.4868C178.805 24.0471 177.538 24.3953 177.308 23.5206C176.941 22.1208 185.644 19.8406 181.578 17.9726C178.542 16.5779 173.886 23.6283 172.824 18.0804C172.641 17.1195 172.991 15.815 172.566 14.9343C172.096 13.961 170.818 13.5971 169.925 13.1234C168.785 12.5195 167.634 11.8988 166.526 11.2374C165.766 10.7841 164.672 9.58031 163.863 9.47007C164.182 11.104 163.572 12.7236 163.561 14.3544C165.313 13.8843 166.518 13.8743 168.247 14.7103C169.07 15.1081 172.172 17.3659 170.601 18.4519C169.327 17.7054 167.965 17.058 166.546 16.619C165.986 16.4457 165.287 16.21 164.692 16.198C163.31 16.1705 163.504 16.3139 162.985 17.3475C162.485 18.3432 162.593 20.9402 161.494 21.576C160.359 22.2336 161.235 21.3132 160.265 21.5257C159.712 21.6471 159.109 22.055 158.603 22.2854C159.297 23.0323 160.697 23.7141 161.157 24.5436C161.828 25.7532 161.595 28.2545 161.7 29.5777C162.579 29.2657 163.504 29.253 164.394 29.0214C165.231 28.8032 166.393 27.8596 166.48 29.247C166.577 30.793 164.113 31.2031 163.007 31.2031ZM174.442 71.9098C174.51 70.5739 174.585 69.2382 174.735 67.9077C174.836 67.0143 175.692 64.423 175.208 63.6383C174.683 62.7846 172.921 62.7303 172.072 62.5254C170.447 62.1324 168.888 61.8105 167.236 61.5509C165.716 61.3123 164.285 61.2621 162.754 61.1929C161.086 61.1182 160.673 60.6795 160.304 62.5018C160.015 63.935 159.626 65.4276 159.572 66.8948C159.521 68.2721 159.941 69.4676 158.565 70.3956C161.586 70.3956 165.522 67.7272 168.279 70.1132C172.223 73.5254 165.359 74.5084 163.549 75.2616C165.054 75.987 167.288 76.5566 167.996 78.2132C168.79 80.0702 167.637 80.8597 165.872 81.0084C166.038 81.7238 166.674 82.189 166.863 83.0496C167.14 84.3112 166.241 83.8935 167.388 84.8698C168.899 86.1546 172.009 87.0137 173.861 87.8321C174.295 88.0246 174.734 88.2051 175.178 88.3741C175.873 88.9866 176.385 88.87 176.716 88.0237C177.666 87.427 178.512 86.0958 179.355 85.3216C181.231 83.5983 183.301 82.0863 185.53 80.8422C184.606 80.4625 183.501 81.3204 182.614 80.9029C181.898 80.5655 182.168 79.9513 181.738 79.4916C181.91 78.8921 181.729 78.6729 181.194 78.834C180.926 78.8622 180.677 78.8171 180.447 78.6993C179.998 78.148 179.797 77.9676 179.767 77.1164C179.735 76.2135 180.263 75.8945 180.465 75.1717C181.123 74.7273 181.108 74.2904 180.42 73.8621C180.137 73.4037 179.983 72.9065 179.958 72.3699C179.827 70.3782 181.66 69.5753 183.058 68.5218C180.555 68.2489 180.65 65.3371 182.382 64.0643C184.177 62.7446 187.978 63.285 190.149 63.5827C190.6 63.644 191.819 64.2216 192.276 63.8534C192.556 63.6278 192.358 61.7196 192.371 61.3832C192.4 60.6188 192.588 59.7073 192.465 58.9467C192.208 57.3543 192.752 58.1562 191.597 58.1121C188.846 58.0063 185.344 60.3878 182.924 61.5106C180.215 62.7675 178.474 62.9606 178.446 66.077C178.419 69.0276 177.585 71.9676 177.221 74.8715C177.062 76.1395 176.948 82.7278 174.608 80.2964C173.701 79.3534 174.282 77.9034 174.349 76.7403C174.441 75.1396 174.387 73.5146 174.442 71.9098ZM23.1286 170.683C24.4679 170.919 26.6485 170.157 28.1095 170.077C30.6637 169.937 33.2941 169.696 35.7967 169.169C37.7544 168.756 39.9854 168.393 41.0411 166.514C41.9851 164.834 42.3186 162.73 42.8269 160.897C43.0969 159.923 43.7936 158.512 43.7933 157.505C43.793 156.196 43.6152 156.454 42.2388 155.737C40.4966 154.831 38.8015 153.567 36.9223 153.053C36.3537 152.943 35.7848 152.835 35.2156 152.729C34.4792 152.305 34.0638 152.514 33.9674 153.353C33.2486 154.105 32.8274 155.49 32.2242 156.369C30.8494 158.374 29.2168 159.74 27.0839 160.895C23.2455 162.975 19.6693 164.58 15.5584 165.939C13.2928 166.689 11.2037 167.74 8.98927 168.566C7.21519 169.228 4.76675 169.429 3.40398 170.902C1.86636 172.564 4.22978 173.168 5.54341 174.292C6.61979 175.212 6.64074 175.424 8.11309 174.977C9.21 174.643 10.1825 174.007 11.2358 173.575C14.8441 172.097 19.2112 171.113 23.1286 170.683ZM105.591 197.044C104.246 196.755 102.901 196.467 101.557 196.179C102.879 198.628 105.66 202.211 103.664 205.045C102.918 206.104 101.677 206.406 100.568 206.943C99.2266 207.593 97.9876 208.426 96.7192 209.201C91.4885 212.395 86.1725 215.635 80.6609 218.376C82.3864 218.928 85.0393 219.311 86.8164 218.829C88.8856 218.269 90.8017 216.981 92.926 216.419C96.7374 215.41 100.749 214.551 104.621 214.033C107.786 213.61 115.709 214.566 115.324 209.844C114.959 205.362 112.259 201.086 111.456 196.654C109.485 197.088 107.605 197.013 105.591 197.044ZM185.746 125.299C187.278 117.837 188.194 110.249 190.002 102.841C190.904 99.1454 191.539 95.399 192.421 91.7024C192.831 89.9823 193.14 88.2457 193.539 86.5292C193.944 84.7913 194.814 83.1875 195.013 81.3909C193.548 81.7502 193.209 85.0779 192.765 86.3297C191.951 88.626 191.063 90.8328 190.016 93.0314C188.353 96.5262 186.587 99.898 184.711 103.286C182.732 106.86 180.642 110.297 178.169 113.56C177.357 114.633 176.255 115.473 175.731 116.65C174.908 118.5 174.562 120.705 173.776 122.631C174.33 122.91 175.76 122.979 176.439 123.112C177.702 123.36 178.588 123.579 179.801 124.175C181.938 125.225 183.734 126.469 185.162 128.357C185.521 127.388 185.615 126.325 185.746 125.299ZM126.168 182.23C126.143 175.044 126.04 167.796 126.159 160.663C126.192 158.683 126.354 156.546 126.644 154.58C126.826 153.345 127.896 150.719 127.192 150.126C126.591 149.62 123.418 149.954 122.64 149.935C121.13 149.901 119.624 149.834 118.111 149.721C118.111 152.385 119.16 155.409 119.648 158.043C120.102 160.501 120.475 162.972 120.851 165.441C121.662 170.787 121.893 176.207 122.774 181.567C123.573 186.427 124.626 191.267 125.207 196.127C125.526 198.795 126.171 201.311 126.672 203.977C126.934 205.368 127.888 211.094 129.09 211.657C129.344 209.603 128.306 207.122 128.12 205.046C127.928 202.901 127.78 200.742 127.429 198.586C127.018 196.056 126.81 193.463 126.652 190.901C126.555 189.333 126.526 187.77 126.389 186.204C126.291 185.067 125.857 183.344 126.168 182.23ZM163.925 86.1355C163.975 85.353 161.933 85.3845 161.553 84.485C160.781 82.6585 162.54 82.9874 163.621 82.7983C163.236 81.7826 156.017 82.1524 157.699 79.4106C158.866 77.5082 163.289 80.42 164.472 78.6122C165.249 77.4249 163.134 77.2613 162.295 77.1425C161.033 76.963 158.06 77.5425 158.158 75.9184C158.281 73.8774 164.061 72.4687 165.683 71.8692C165.503 70.4716 158.546 72.4582 157.539 73.0247C155.261 74.3069 153.515 76.6075 153.18 79.1647C152.791 82.1397 154.312 84.4828 157.308 85.2129C158.557 85.5173 159.48 85.5509 160.636 86.0088C161.397 86.3096 163.858 87.0601 164.379 86.3007C164.228 86.2458 164.077 86.1905 163.925 86.1355ZM204.765 67.6306C204.88 66.3601 205.959 63.9684 204.716 63.1338C202.978 61.9656 202.258 63.8906 201.864 65.0467C201.382 66.4586 199.357 69.9149 201.128 70.7947C201.539 70.9993 203.491 70.761 203.836 70.6263C204.795 70.8741 205.104 70.5179 204.765 69.5566V67.6306ZM162.337 170.23C162.228 166.758 163.795 162.583 164.684 159.182C165.691 155.329 166.221 151.399 167.288 147.587C166.101 147.729 164.904 147.845 163.731 148.081C162.131 148.404 162.103 148.353 162.218 149.909C162.389 152.247 162.164 154.538 162.043 156.875C161.799 161.553 162.393 166.308 161.998 170.957C162.35 171.046 162.463 170.803 162.337 170.23ZM206.629 79.2254C210.472 79.8087 214.156 81.0176 217.653 82.6414C219.581 83.5364 221.704 84.4984 223.859 84.8558C226.252 85.2533 228.791 85.0668 231.235 85.2199C232.097 85.2739 234.362 85.6892 235.202 85.1865C236.034 84.6884 235.969 83.8445 236.008 82.8384C236.109 80.2506 234.928 77.7169 233.866 75.3951C232.955 73.4031 232.267 71.8822 230.853 70.1688C229.038 67.968 227.457 65.5931 225.757 63.2961C224.475 61.5649 223.18 59.8582 221.874 58.1289C220.94 56.8905 220.984 56.4644 219.575 56.603C218.188 56.7396 216.791 57.5529 215.485 57.9837C213.546 58.6236 211.198 58.9747 209.429 59.9977C208.286 60.6591 208.235 60.7808 208.248 61.9351C208.261 63.0102 208.61 64.3217 209.258 65.1627C210.606 66.9088 212.839 67.833 214.755 68.7041C215.863 69.2077 216.821 69.9222 217.808 70.6174C218.871 71.3665 221.016 71.8078 221.83 72.6618C224.199 75.1489 219.887 74.6574 218.682 74.5824C216.082 74.42 213.496 74.4448 210.877 74.4429C208.018 74.441 205.182 74.3092 202.364 74.4013C200.713 74.4553 198.819 73.6248 197.749 72.2406C197.231 71.5699 197.029 70.9361 196.352 70.2403C195.465 69.3294 194.693 68.3696 193.614 67.6646C191.847 66.511 188.637 65.8584 186.534 66.2889C187.287 66.3931 190.829 67.589 189.27 69.0921C189.08 69.2751 186.802 69.3948 186.307 69.6204C185.413 70.0274 184.287 70.619 183.763 71.4784C185.289 71.2248 190.948 70.9313 188.061 73.8355C187.353 74.5484 185.318 75.2597 187.05 76.0178C187.447 76.1919 188.243 75.9454 188.755 76.1023C189.516 76.3361 190.138 76.9611 190.851 77.2944C192.873 78.2405 195.66 78.8238 197.771 78.6166C200.689 78.3294 203.73 78.8464 206.629 79.2254ZM129.241 166.73C129.341 170.902 129.189 175.098 129.279 179.29C129.374 183.765 129.953 188.151 130.229 192.582C130.477 196.553 131.018 200.448 131.457 204.4C131.709 206.677 132.001 208.853 132.389 211.112C132.753 213.226 132.815 215.089 130.267 215.658C125.395 216.745 124.638 209.794 123.697 206.865C122.292 202.494 121.39 197.905 120.694 193.374C119.398 184.935 117.674 176.613 117.001 168.102C116.587 162.862 115.986 157.675 115.645 152.439C115.579 151.413 115.842 149.832 114.934 149.375C114.388 149.101 112.883 149.098 112.193 148.899C110.272 148.345 108.499 147.529 106.625 146.682C107.955 153.582 108.395 160.449 109.393 167.41C109.922 171.104 110.936 174.932 111.814 178.567C112.724 182.334 112.926 186.391 113.976 190.076C114.438 191.7 114.83 192.362 114.159 194.029C113.335 196.076 113.882 196.566 114.914 198.575C116.813 202.273 118.263 206.637 117.941 210.806C117.678 214.21 115.085 215.992 111.872 216.911C107.854 218.059 103.646 217.924 99.6026 219.228C96.0805 220.364 92.5016 221.204 89.081 222.704C87.7017 223.309 86.3913 224.027 84.8599 224.138C82.7593 224.289 81.3429 223.08 79.3592 222.828C78.1192 222.671 76.3037 223.258 75.5894 221.969C75.0231 220.946 75.6637 218.716 76.3748 217.893C78.3716 215.581 82.3708 213.567 85.0636 212.202C88.1675 210.63 91.1707 208.662 94.0465 206.632C95.7896 205.402 97.567 204.221 99.3089 202.988C100.461 202.172 100.899 202.167 100.781 200.871C100.688 199.838 100.218 198.835 100.136 197.777C100.073 196.966 100.359 195.861 99.9729 195.332C99.6888 194.941 98.6221 194.666 98.2028 194.37C96.6692 193.292 96.3207 191.958 95.6243 190.318C94.0423 186.592 92.2249 182.971 90.6973 179.215C87.4173 171.152 85.416 162.673 82.6968 154.445C79.9191 146.038 77.4351 137.214 75.9052 128.492C73.8581 129.11 71.926 131.845 70.2956 133.197C68.0931 135.026 65.8362 136.794 63.6764 138.672C60.1359 141.752 56.551 144.746 53.6253 148.434C52.2156 150.21 51.0615 152.122 49.7854 153.988C49.0483 155.066 48.3609 156.286 47.5627 157.312C47.4346 157.476 47.4307 157.814 47.2927 157.954C46.9887 158.262 46.408 157.852 46.2132 158.055C45.0101 159.303 45.0258 162.846 44.6511 164.492C44.1344 166.761 43.5543 169.37 41.7683 170.933C39.0091 173.349 33.9209 173.723 30.4292 173.848C25.948 174.009 21.6011 175.248 17.3496 176.578C15.3665 177.198 13.4353 177.924 11.4449 178.526C10.3001 178.874 8.99411 179.565 7.77151 179.432C6.29711 179.272 5.13293 178.041 4.05294 177.127C2.32517 175.664 0.725532 174.221 0.782739 171.821C0.843567 169.28 2.23132 167.362 4.41748 166.1C8.64404 163.66 13.3713 162.095 17.9271 160.409C19.6728 159.763 21.1674 159.047 22.8365 158.177C25.1953 156.947 27.9103 155.943 30.0032 154.319C30.6201 153.839 32.8879 152.371 33.0811 151.614C33.1064 151.515 32.5397 150.359 32.5372 150.176C32.5317 149.704 32.8133 149.193 32.9866 148.789C34.0766 146.248 35.9049 143.8 37.3028 141.403C39.8627 137.013 42.4326 132.599 45.4006 128.47C51.319 120.238 57.9674 112.178 65.1431 104.992C68.6412 101.488 71.664 97.5149 75.2114 94.0601C76.617 92.6918 78.1007 91.5772 79.8323 90.6889C81.7628 89.699 83.9297 89.5048 86.1424 89.2024C91.5045 88.4704 95.9824 90.0437 101.016 91.4127C105.776 92.7067 110.54 93.7983 115.326 95.1464C120.581 96.6266 125.783 98.0464 131.022 99.6597C133.822 100.522 136.702 101.051 139.514 101.878C140.868 102.276 145.989 104.77 147.118 103.95C143.561 102.295 139.917 100.786 136.111 99.7868C134.99 99.4926 134.275 99.8183 134.316 98.5417C134.339 97.8456 135.128 96.9058 135.412 96.3327C136.092 94.9605 136.862 93.6198 137.527 92.2438C135.114 92.9234 128.63 95.275 126.812 92.8439C124.909 90.2991 126.497 85.3101 127.69 82.8187C130.803 76.3149 136.096 70.8874 141.255 65.9846C142.371 64.9247 144.776 63.5404 145.371 62.1902C145.551 61.7797 145.158 61.1767 145.566 60.6433C145.809 60.3262 146.783 60.1095 147.173 59.7677C148.591 58.5222 149.723 55.9018 150.702 54.2688C151.729 52.5592 152.654 50.7076 153.944 49.1733C156.054 46.6647 158.232 44.0055 161.648 43.4187C163.323 43.1312 165.103 43.2846 166.709 42.7105C168.651 42.0163 170.496 40.9228 172.457 40.2038C171.97 39.2116 171.576 37.6342 170.632 37.5258C169.723 37.4213 168.391 38.1962 167.35 38.1905C165.831 38.1822 164.535 37.9411 163.069 37.6542C161.446 37.3359 160.912 37.3937 160.32 35.6479C159.7 33.8191 159.856 31.6949 159.861 29.7954C159.864 28.867 160.049 27.715 159.97 26.8038C159.85 25.431 159.581 25.3783 158.496 24.5052C157.141 23.4145 155.47 21.9712 157.13 20.0759C158.027 19.0518 159.871 19.8482 160.666 18.7478C161.475 17.6271 161.436 14.8117 161.683 13.4953C159.187 14.7119 160.102 10.1638 160.102 9.06947C160.101 7.47705 159.025 4.61332 160.574 3.28848C161.294 2.67339 161.829 3.18224 162.652 2.82879C163.591 2.42536 164.182 1.36736 165.181 0.957166C167.167 0.141576 169.194 1.12371 171.233 0.961549C173.571 0.775817 175.868 0.417157 178.22 0.789416C179.334 0.96514 179.803 1.38493 180.745 1.85542C181.652 2.30793 182.572 2.43178 183.556 2.72293C184.432 2.98214 185.2 3.11313 185.792 3.87042C186.26 4.46953 186.07 5.47723 186.542 5.99367C187.008 6.50251 187.93 6.42861 188.486 7.03289C189.019 7.61284 189.338 8.57143 189.616 9.29313C189.99 10.2653 190.034 10.6303 190.693 11.4084C191.268 12.0874 192.096 12.6334 192.576 13.4078C193.706 15.2335 193.735 17.8735 193.374 19.9273C193.252 20.6266 192.23 22.4344 192.39 23.0294C192.542 23.5959 193.5 23.4469 193.934 23.805C194.309 24.1147 194.639 25.4939 194.935 25.5781C195.574 25.7598 196.362 24.5084 196.846 24.3206C197.687 23.9943 198.039 23.6598 198.505 24.8896C198.85 25.8021 198.369 27.0408 198.116 27.9117C197.794 29.0205 197.438 30.3558 196.584 31.1942C195.58 32.1798 194.776 31.6409 193.668 32.1718C192.008 32.9674 192.498 35.455 190.455 36.1657C188.509 36.8434 186.364 34.7119 184.892 33.7324C185.197 36.1108 186.345 38.4024 185.794 40.8402C190.271 39.1004 194.699 36.6312 199.578 36.0873C202.066 35.8096 204.579 35.4808 206.927 36.5054C209.677 37.7044 211.361 40.3493 213.222 42.5469C216.718 46.6771 220.307 50.6914 223.663 54.9547C226.741 58.8654 229.337 63.3965 232.725 67.0581C236.161 70.7715 238.754 76.7962 238.378 81.938C238.344 82.4021 237.982 83.4566 238.038 83.957C238.083 84.3405 238.434 84.8266 238.428 85.1357C238.409 86.1762 238.063 86.7754 237.063 87.3524C235.329 88.3538 232.747 88.8605 230.788 89.109C228.185 89.4394 224.997 89.475 222.393 89.1223C219.708 88.7579 217.347 87.2669 214.877 86.3659C212.711 85.5751 210.535 85.0814 208.259 84.5769C207.003 84.2985 205.613 83.5281 204.837 84.2738C204.124 84.9591 203.976 88.4755 203.81 89.4105C202.009 99.545 199.869 109.336 197.973 119.419C195.825 130.848 194.356 142.272 192.862 153.797C191.504 164.274 191.06 174.87 190.756 185.337C190.611 190.33 190.59 195.269 190.621 200.267C190.638 203.065 192.049 212.406 187.866 212.763C185.409 212.974 183.442 209.479 182.784 207.573C181.794 204.709 181.279 201.625 181.121 198.617C180.802 192.527 180.384 186.432 180.136 180.34C179.868 173.739 180.209 167.017 180.756 160.438C181.307 153.815 182.694 147.289 183.119 140.656C181.843 142.463 181.434 142.802 179.308 143.589C177.083 144.413 174.943 145.387 172.698 146.156C171.934 146.417 170.742 146.58 170.116 147.008C168.961 147.798 169.72 146.902 169.351 148.438C168.957 150.079 168.883 152.05 168.778 153.736C168.286 161.65 166.076 169.508 165.056 177.38C164.81 179.281 165.161 187.35 161.863 184.807C159.324 182.848 159.374 176.697 159.013 173.816C158.531 169.975 158.8 166.026 158.875 162.163C158.962 157.762 159.037 153.146 160.096 148.85C158.201 148.528 155.567 149.404 153.66 149.551C152.009 149.679 150.364 149.76 148.723 149.849C144.808 150.063 140.776 150.233 136.795 150.156C136.07 150.142 131.336 149.485 130.731 150.015C130.534 150.187 130.474 152.555 130.437 152.844C130.298 153.932 130.109 155.019 129.968 156.101C129.518 159.559 129.112 163.273 129.241 166.73Z" fill="#05162E"/>
<path fill-rule="evenodd" clip-rule="evenodd" d="M199.55 199.598C202.538 200.756 205.708 201.176 208.721 202.231C211.415 203.175 213.916 204.443 216.569 205.401C216.724 204.181 216.806 202.115 216.352 200.964C215.709 199.336 214.016 199.296 212.349 198.716C208.292 197.304 204.024 197.006 199.997 195.357C200.686 196.673 200.378 198.417 199.55 199.598ZM251.124 195.339C244.671 195.527 238.505 197.016 232.145 197.937C229.051 198.385 225.954 198.785 222.856 199.203C221.664 199.364 219.492 199.175 218.625 200.198C217.907 201.046 218.694 203.94 218.375 205.182C219.68 205.278 221.995 204.069 223.411 203.869C225.615 203.559 227.79 203.123 230.017 202.984C233.545 202.764 237.01 202.576 240.531 202.187C244.112 201.791 247.577 201.055 251.186 200.787C252.941 200.656 253.647 200.982 253.75 199.145C253.791 198.426 253.89 197.224 253.687 196.516C254.011 195.645 253.723 195.222 252.823 195.247C252.251 195.183 251.685 195.214 251.124 195.339ZM238.644 189.476C240.389 189.313 242.141 189.081 243.89 188.983C244.245 188.963 246.044 189.071 246.338 188.743C246.754 188.281 246.29 186.588 246.214 186.065C245.955 184.284 245.668 183.248 243.71 183.244C242.057 183.24 240.345 183.587 238.699 183.747C231.225 184.473 223.789 184.78 216.398 186.16C216.848 188.06 217.358 190.021 216.82 191.964C220.366 192.146 224.259 191.469 227.724 190.775C231.266 190.065 235.024 189.713 238.644 189.476ZM226.815 171.583C224.144 171.595 221.322 172.761 218.687 172.501C218.648 172.988 219.491 172.584 219.724 173.039C220.221 173.04 220.394 173.201 220.243 173.523C220.252 173.742 220.139 173.871 219.903 173.908C219.787 173.918 219.671 173.928 219.555 173.938C219.045 173.954 218.962 174.295 219.305 174.961C219.157 175.787 219.378 176.835 219.41 177.663C224.146 177.024 228.746 176.36 233.515 176.074C235.766 175.94 238.016 175.94 240.264 175.757C242.738 175.554 245.438 175.988 247.857 175.528C249.15 175.282 249.014 175.3 248.92 173.632C248.863 172.619 248.884 171.416 248.053 170.677C246.663 169.443 243.501 170.156 241.84 170.199C236.837 170.331 231.75 170.792 226.815 171.583ZM229.548 195.399C236.701 194.754 243.801 193.343 250.995 193.343C250.486 192.839 249.378 192.709 248.745 192.434C248.023 192.121 247.342 191.453 246.637 191.179C245.221 190.629 243.781 191.393 242.327 191.723C238.82 192.52 235.221 192.547 231.709 193.328C228.077 194.136 224.398 194.88 220.7 195.291C218.939 195.486 217.049 195.882 215.309 195.421C215.168 195.321 215.026 195.221 214.885 195.121C214.733 194.478 214.31 194.307 213.618 194.606C212.738 194.44 211.619 194.654 210.733 194.676C210.697 195.027 213.968 196.127 214.592 196.4C216.095 197.056 217.114 197.537 218.719 197.255C222.333 196.622 225.888 195.866 229.548 195.399ZM204.384 174.655C204.663 175.736 205.837 175.244 206.848 175.363C208.204 175.522 209.554 175.987 210.868 176.336C213.254 176.972 215.64 177.6 218.016 178.272C217.923 177.32 218.135 175.153 217.628 174.309C217.096 173.424 214.573 173.036 213.399 172.766C210.437 172.086 207.274 172.473 204.266 172.616C204.32 173.295 204.359 173.974 204.384 174.655ZM232.826 181.417C235.636 181.181 238.449 180.997 241.266 180.899C244.487 180.787 242.146 180.277 242.078 178.328C237.844 178.998 233.573 179.13 229.352 179.703C225.856 180.178 221.69 181.417 218.124 180.752C216.442 180.438 214.724 180.317 212.934 180.139C211.246 179.972 209.653 179.192 207.986 178.998C206.113 178.78 204.201 179.824 202.338 180.1C201.549 180.216 201.366 180.747 200.993 179.805C200.607 178.827 201.714 178.029 202.149 177.444C202.658 176.761 202.447 177.87 202.73 176.804C202.809 176.505 202.594 175.754 202.555 175.432C202.455 174.619 202.197 173.736 202.157 172.924C202.12 172.178 202.114 171.039 202.93 170.604C203.428 170.338 203.781 170.726 204.216 170.651C207.606 170.066 211.594 170.018 215.033 170.582C218.76 171.194 221.969 169.575 225.642 168.918C229.953 168.147 234.308 168.032 238.655 167.706C242.372 167.428 249.164 165.985 250.579 170.694C250.98 172.029 251.565 175.702 250.486 176.837C249.07 178.328 245.792 177.852 243.962 178.24C244.236 179.012 245.051 179.538 244.769 180.458C247.334 180.578 247.788 182.982 248.19 185.225C248.605 187.547 247.794 188.469 250.031 189.678C253.148 191.363 256.451 193.064 256.39 197.077C256.359 199.094 256.131 202.136 254.043 203.183C252 204.207 248.674 204.034 246.422 204.406C242.062 205.126 237.687 205.971 233.3 206.403C228.629 206.863 223.88 207.241 219.202 207.447C216.653 207.56 214.45 207.942 211.989 207.091C209.568 206.254 207.2 205.643 204.703 205.022C202.237 204.41 194.69 203.585 196.889 199.402C197.241 198.733 198.444 198.201 198.638 197.568C198.951 196.548 197.893 195.751 197.937 194.829C198.018 193.141 199.937 192.93 201.263 192.93C198.991 191.52 202.033 189.852 202.015 188.655C201.983 186.547 199.34 185.179 199.19 183.412C198.827 179.111 212.581 183.589 214.698 184.519C213.068 186.916 205.509 184.842 203.257 184.479C203.565 185.279 203.858 185.998 203.947 186.818C204.019 187.485 203.762 188.248 203.997 188.92C204.369 189.983 204.356 189.779 205.672 190.069C206.645 190.283 207.607 190.531 208.577 190.758C210.067 191.106 212.411 192.042 213.887 191.991C215.182 191.946 214.926 192.344 215.163 190.918C215.291 190.151 215.073 189.336 214.943 188.585C214.671 187.011 214.273 185.522 215.659 184.392C216.981 183.315 219.766 182.803 221.387 182.423C224.984 181.58 229.136 181.374 232.826 181.417Z" fill="#05162E"/>
<path fill-rule="evenodd" clip-rule="evenodd" d="M249.944 154.551C246.037 153.902 242.068 153.742 238.115 153.939C238.329 154.909 238.544 155.879 238.758 156.849C242.461 155.903 246.218 155.349 249.944 154.551ZM218.177 162.077C216.61 161.964 217.7 162.658 218.087 163.676C218.562 164.925 218.46 166.505 218.57 167.82C223.154 166.087 228.487 165.072 233.361 164.488C235.672 164.212 238.017 164.133 240.342 164.014C241.029 163.979 243.51 164.265 244.012 163.806C244.386 163.465 244.124 161.585 243.765 161.169C241.814 158.914 234.274 160.861 231.546 161.063C227.072 161.395 222.681 162.188 218.177 162.077ZM224.687 156.033C228.746 156.42 232.666 156.383 236.725 156.986C236.417 154.427 236.785 153.774 233.858 153.638C231.25 153.517 228.65 153.419 226.053 153.421C220.215 153.424 214.391 153.313 208.546 153.313V155.914C213.951 155.365 219.271 156.357 224.687 156.033ZM205.169 165.597C207.731 165.586 210.152 166.545 212.714 166.793C214.247 166.942 213.765 167.131 214.829 167.895C216.486 169.084 216.963 168.45 216.755 166.834C216.051 161.366 209.072 162.592 205.05 162.289C205.314 163.592 204.707 164.698 203.812 165.597H205.169ZM232.858 158.577C229.173 158.636 225.484 158.844 221.825 158.768C220.188 158.734 218.066 158.413 216.461 158.69C215.285 158.892 214.301 159.486 213.012 159.707C214.906 160.719 215.867 160.035 217.858 159.805C219.848 159.575 221.867 159.58 223.865 159.46C227.146 159.263 230.644 158.483 233.876 158.695C233.935 158.243 233.596 158.204 232.858 158.577ZM203.633 170.419C201.943 170.415 204.269 168.508 204.574 168.319C202.703 168.319 202.249 167.206 202.792 165.417C203.303 163.732 203.681 164.248 202.395 162.845C201.427 161.788 201.281 161.01 202.422 159.829C203.583 158.627 205.934 158.967 206.962 157.975C208.713 156.287 206.454 152.925 208.88 151.631C210.52 150.758 213.164 150.866 214.975 150.681C216.725 150.503 218.537 150.468 220.299 150.444C224.139 150.392 228.129 151.031 231.952 151.383C233.347 151.511 234.914 152.069 236.287 152.07C237.688 152.072 239.155 151.762 240.601 151.798C242.282 151.84 243.902 151.717 245.636 151.991C246.964 152.201 250.066 152.311 251.081 153.29C254.464 156.555 246.441 158.053 245.061 158.42C246.466 159.947 246.407 161.965 246.196 163.887C246.864 163.887 248.017 163.598 248.363 164.342C248.793 165.265 247.202 165.506 246.826 165.613C244.661 166.234 242.128 166.064 239.897 166.289C235.437 166.739 231.031 166.999 226.618 167.837C224.467 168.245 222.329 168.75 220.18 169.148C219.809 169.217 219.436 169.272 219.061 169.313C218.486 169.265 218.3 169.623 218.503 170.389C217.906 170.678 215.682 169.958 214.994 169.848C211.057 169.214 207.534 169.477 203.633 170.419Z" fill="#05162E"/>
<path fill-rule="evenodd" clip-rule="evenodd" d="M283.141 208.343C280.602 210.326 278.241 212.196 275.491 213.919C277.435 213.859 283.9 210.783 283.141 208.343ZM282.15 205.113C280.764 203.931 279.387 204.052 277.671 203.694C276.091 203.364 274.556 202.797 272.979 202.418C271.742 202.122 270.517 201.721 269.285 201.441C267.544 201.045 267.372 201.481 265.771 202.385C260.093 205.595 253.739 207.803 247.758 210.408C249.514 211.941 253.464 212.008 255.659 212.497C257.261 212.853 258.786 213.341 260.321 213.906C261.75 214.432 264.052 215.642 265.559 215.682C266.831 215.716 267.866 214.475 268.961 213.806C270.401 212.926 271.836 212.061 273.288 211.203C276.361 209.387 279.233 207.162 282.15 205.113ZM256.489 218.114C255.834 217.488 253.861 217.515 253.039 217.324C251.42 216.949 249.825 216.559 248.184 216.278C245.522 215.821 241.317 215.616 241.028 212.191C240.787 209.344 244.255 208.668 246.283 207.704C249.334 206.253 252.446 204.914 255.574 203.634C258.506 202.435 261.481 201.421 264.467 200.384C265.05 200.182 265.522 200.21 265.998 199.748C266.373 199.383 266.257 198.675 266.668 198.293C267.609 197.42 268.831 197.88 269.962 198.104C272.53 198.612 275.197 199.279 277.646 200.222C280.191 201.201 282.467 201.406 283.078 204.267C284.38 203.662 285.358 203.574 285.202 205.353C285.157 205.876 284.774 206.445 284.682 206.984C284.547 207.779 284.784 208.616 284.65 209.413C284.163 212.311 280.224 214.458 277.783 215.596C274.773 216.998 270.889 219.072 267.528 219.345C263.947 219.637 260.044 218.242 256.489 218.114Z" fill="#05162E"/>
<path fill-rule="evenodd" clip-rule="evenodd" d="M210.906 170.037C209.839 170.043 208.77 170.05 207.703 170.057C208.768 169.858 209.837 169.856 210.906 170.037Z" fill="#05162E"/>
<path fill-rule="evenodd" clip-rule="evenodd" d="M148.445 57.9883C148.125 58.5176 147.805 59.0469 147.484 59.5768C147.594 58.8944 147.838 58.3095 148.445 57.9883Z" fill="#05162E"/>
<path fill-rule="evenodd" clip-rule="evenodd" d="M210.906 185.223C211.548 185.228 212.19 185.233 212.828 185.239C212.185 185.234 211.546 185.229 210.906 185.223Z" fill="#05162E"/>
<path fill-rule="evenodd" clip-rule="evenodd" d="M225.641 150.661C224.893 150.621 224.146 150.581 223.398 150.541C224.146 150.581 224.893 150.621 225.641 150.661Z" fill="#05162E"/>
<path fill-rule="evenodd" clip-rule="evenodd" d="M212.828 170.052C212.187 170.046 211.546 170.04 210.906 170.034C211.549 169.86 212.19 169.866 212.828 170.052Z" fill="#05162E"/>
<path fill-rule="evenodd" clip-rule="evenodd" d="M238.32 79.9102C238.302 79.2744 238.284 78.6387 238.266 78.0039C238.285 78.64 238.302 79.2747 238.32 79.9102Z" fill="#05162E"/>
<path fill-rule="evenodd" clip-rule="evenodd" d="M129.407 175.858C129.394 175.328 129.38 174.799 129.367 174.27C129.381 174.8 129.394 175.329 129.407 175.858Z" fill="#05162E"/>
<path fill-rule="evenodd" clip-rule="evenodd" d="M146.844 149.965C147.272 149.965 147.7 149.965 148.125 149.966C147.696 149.966 147.27 149.965 146.844 149.965Z" fill="#05162E"/>
<path fill-rule="evenodd" clip-rule="evenodd" d="M204.18 35.8516C203.646 35.89 203.112 35.9281 202.578 35.9666C203.112 35.9281 203.646 35.89 204.18 35.8516Z" fill="#05162E"/>
<path fill-rule="evenodd" clip-rule="evenodd" d="M244.539 151.878C243.898 151.874 243.257 151.869 242.617 151.865C243.257 151.869 243.898 151.874 244.539 151.878Z" fill="#05162E"/>
<path fill-rule="evenodd" clip-rule="evenodd" d="M190.59 191.109C190.574 190.685 190.558 190.26 190.543 189.838C190.559 190.263 190.574 190.686 190.59 191.109Z" fill="#05162E"/>
<path fill-rule="evenodd" clip-rule="evenodd" d="M191.224 174.906C191.213 174.482 191.201 174.058 191.19 173.635C191.202 174.059 191.213 174.482 191.224 174.906Z" fill="#05162E"/>
<path fill-rule="evenodd" clip-rule="evenodd" d="M180.293 182.213C180.309 182.637 180.324 183.062 180.339 183.484C180.324 183.059 180.309 182.636 180.293 182.213Z" fill="#05162E"/>
<path fill-rule="evenodd" clip-rule="evenodd" d="M149.406 149.654C149.728 149.65 150.049 149.645 150.367 149.641C150.045 149.645 149.726 149.65 149.406 149.654Z" fill="#05162E"/>
<path fill-rule="evenodd" clip-rule="evenodd" d="M242.297 166.19C242.618 166.176 242.939 166.162 243.258 166.148C242.936 166.162 242.616 166.176 242.297 166.19Z" fill="#05162E"/>
<path fill-rule="evenodd" clip-rule="evenodd" d="M180.93 192.379C180.948 192.803 180.966 193.228 180.984 193.65C180.966 193.224 180.948 192.802 180.93 192.379Z" fill="#05162E"/>
<path fill-rule="evenodd" clip-rule="evenodd" d="M215.263 190.156C215.241 190.581 215.22 191.005 215.198 191.427C215.22 191.003 215.241 190.579 215.263 190.156Z" fill="#05162E"/>
<path fill-rule="evenodd" clip-rule="evenodd" d="M178.344 0.848024C177.892 0.790837 177.439 0.734126 176.986 0.676939C177.435 0.779876 177.927 0.398151 178.344 0.848024Z" fill="#05162E"/>
<path fill-rule="evenodd" clip-rule="evenodd" d="M158.874 163.785C158.862 164.209 158.849 164.633 158.837 165.056C158.849 164.631 158.861 164.208 158.874 163.785Z" fill="#05162E"/>
<path fill-rule="evenodd" clip-rule="evenodd" d="M131.341 202.546C131.32 202.122 131.298 201.699 131.276 201.275C131.298 201.699 131.32 202.123 131.341 202.546Z" fill="#05162E"/>
<path fill-rule="evenodd" clip-rule="evenodd" d="M234.93 166.815C235.252 166.808 235.573 166.801 235.891 166.795C235.568 166.802 235.249 166.808 234.93 166.815Z" fill="#05162E"/>
<path fill-rule="evenodd" clip-rule="evenodd" d="M126.18 89.7598C126.183 90.1842 126.185 90.6084 126.187 91.0306C126.184 90.6058 126.182 90.1829 126.18 89.7598Z" fill="#05162E"/>
<path fill-rule="evenodd" clip-rule="evenodd" d="M119.46 185.072C119.458 185.496 119.457 185.921 119.455 186.343C119.456 185.918 119.458 185.495 119.46 185.072Z" fill="#05162E"/>
<path fill-rule="evenodd" clip-rule="evenodd" d="M199.292 182.531C199.28 182.955 199.269 183.38 199.257 183.802C199.083 183.366 199.102 182.944 199.292 182.531Z" fill="#05162E"/>
<path fill-rule="evenodd" clip-rule="evenodd" d="M190.892 180.624C190.889 180.2 190.885 179.776 190.882 179.354C190.885 179.779 190.889 180.201 190.892 180.624Z" fill="#05162E"/>
<path fill-rule="evenodd" clip-rule="evenodd" d="M256.391 218.26C256.712 218.269 257.034 218.277 257.352 218.286C257.029 218.278 256.71 218.269 256.391 218.26Z" fill="#05162E"/>
<path fill-rule="evenodd" clip-rule="evenodd" d="M244.859 177.929C245.074 177.925 245.288 177.922 245.5 177.918C245.284 177.922 245.072 177.925 244.859 177.929Z" fill="#05162E"/>
<path fill-rule="evenodd" clip-rule="evenodd" d="M236.852 178.878C237.066 178.878 237.28 178.877 237.492 178.877C237.277 178.878 237.064 178.878 236.852 178.878Z" fill="#05162E"/>
<path fill-rule="evenodd" clip-rule="evenodd" d="M112.109 180.941C112.096 180.624 112.083 180.305 112.071 179.988C112.084 180.307 112.097 180.624 112.109 180.941Z" fill="#05162E"/>
<path fill-rule="evenodd" clip-rule="evenodd" d="M243.258 180.701C242.979 180.981 242.622 180.816 242.297 180.833C242.617 180.789 242.938 180.745 243.258 180.701Z" fill="#05162E"/>
<path fill-rule="evenodd" clip-rule="evenodd" d="M205.141 170.535C204.718 170.733 204.29 170.761 203.859 170.549C204.287 170.544 204.714 170.54 205.141 170.535Z" fill="#05162E"/>
<path fill-rule="evenodd" clip-rule="evenodd" d="M233.008 181.425C232.581 181.421 232.153 181.418 231.727 181.414C232.154 181.418 232.581 181.421 233.008 181.425Z" fill="#05162E"/>
<path fill-rule="evenodd" clip-rule="evenodd" d="M215.07 170.357C214.643 170.319 214.216 170.281 213.789 170.242C214.216 170.281 214.643 170.319 215.07 170.357Z" fill="#05162E"/>
<path fill-rule="evenodd" clip-rule="evenodd" d="M117.227 168.869C117.22 169.188 117.211 169.506 117.203 169.822C117.211 169.503 117.219 169.186 117.227 168.869Z" fill="#05162E"/>
<path fill-rule="evenodd" clip-rule="evenodd" d="M190.862 186.025C190.879 185.707 190.895 185.389 190.911 185.072C190.895 185.391 190.879 185.708 190.862 186.025Z" fill="#05162E"/>
<path fill-rule="evenodd" clip-rule="evenodd" d="M234.93 167.703C234.503 167.739 234.075 167.774 233.648 167.81C234.076 167.774 234.503 167.739 234.93 167.703Z" fill="#05162E"/>
<path fill-rule="evenodd" clip-rule="evenodd" d="M129.4 166.645C129.391 166.326 129.382 166.008 129.374 165.691C129.382 166.01 129.391 166.327 129.4 166.645Z" fill="#05162E"/>
<path fill-rule="evenodd" clip-rule="evenodd" d="M182.916 142.182C182.891 142.5 182.866 142.818 182.841 143.135C182.866 142.816 182.892 142.499 182.916 142.182Z" fill="#05162E"/>
<path fill-rule="evenodd" clip-rule="evenodd" d="M241.336 151.795C240.908 152.015 240.481 151.987 240.055 151.793C240.482 151.794 240.909 151.795 241.336 151.795Z" fill="#05162E"/>
<path fill-rule="evenodd" clip-rule="evenodd" d="M190.595 195.875C190.576 195.557 190.557 195.239 190.539 194.922C190.557 195.241 190.576 195.558 190.595 195.875Z" fill="#05162E"/>
<path fill-rule="evenodd" clip-rule="evenodd" d="M190.586 198.416C190.573 198.098 190.559 197.78 190.546 197.463C190.56 197.781 190.573 198.098 190.586 198.416Z" fill="#05162E"/>
<path fill-rule="evenodd" clip-rule="evenodd" d="M130.021 156.479C130.025 156.16 130.029 155.842 130.034 155.525C130.029 155.844 130.025 156.161 130.021 156.479Z" fill="#05162E"/>
<path fill-rule="evenodd" clip-rule="evenodd" d="M221.156 207.162C221.371 207.156 221.585 207.15 221.797 207.145C221.581 207.151 221.369 207.156 221.156 207.162Z" fill="#05162E"/>
<path fill-rule="evenodd" clip-rule="evenodd" d="M117.881 209.854C117.864 209.535 117.847 209.217 117.83 208.9C117.847 209.218 117.864 209.536 117.881 209.854Z" fill="#05162E"/>
<path fill-rule="evenodd" clip-rule="evenodd" d="M187.203 212.547C187.418 212.551 187.632 212.555 187.844 212.56C187.629 212.556 187.416 212.551 187.203 212.547Z" fill="#05162E"/>
<path fill-rule="evenodd" clip-rule="evenodd" d="M233.648 151.602C233.221 151.57 232.794 151.538 232.367 151.506C232.794 151.538 233.221 151.57 233.648 151.602Z" fill="#05162E"/>
<path fill-rule="evenodd" clip-rule="evenodd" d="M235.891 151.937L234.93 151.805L235.891 151.937Z" fill="#05162E"/>
<path fill-rule="evenodd" clip-rule="evenodd" d="M187.336 185.391C187.355 184.437 187.372 183.484 187.39 182.531C187.372 183.485 187.354 184.438 187.336 185.391Z" fill="#05162E"/>
<path fill-rule="evenodd" clip-rule="evenodd" d="M162.362 150.441C162.373 151.183 162.384 151.925 162.395 152.665C162.385 151.923 162.373 151.182 162.362 150.441Z" fill="#05162E"/>
<path fill-rule="evenodd" clip-rule="evenodd" d="M107.125 196.977C106.59 196.983 106.055 196.989 105.523 196.996C106.06 196.99 106.592 196.983 107.125 196.977Z" fill="#05162E"/>
<path fill-rule="evenodd" clip-rule="evenodd" d="M151.008 133.775C150.473 133.766 149.938 133.758 149.406 133.75C149.943 133.759 150.475 133.767 151.008 133.775Z" fill="#05162E"/>
<path fill-rule="evenodd" clip-rule="evenodd" d="M137.234 146.154C137.769 146.154 138.303 146.153 138.836 146.152C138.302 146.152 137.768 146.153 137.234 146.154Z" fill="#05162E"/>
<path fill-rule="evenodd" clip-rule="evenodd" d="M144.281 133.434C143.853 133.441 143.424 133.448 143 133.454C143.43 133.448 143.856 133.441 144.281 133.434Z" fill="#05162E"/>
<path fill-rule="evenodd" clip-rule="evenodd" d="M109.688 196.989C109.259 196.987 108.831 196.985 108.406 196.982C108.836 196.985 109.262 196.987 109.688 196.989Z" fill="#05162E"/>
<path fill-rule="evenodd" clip-rule="evenodd" d="M167.344 34.6926C167.877 34.6557 168.412 34.6189 168.945 34.582C168.411 34.6189 167.877 34.6557 167.344 34.6926Z" fill="#05162E"/>
<path fill-rule="evenodd" clip-rule="evenodd" d="M174.521 71.9674C174.541 71.4378 174.56 70.9082 174.58 70.3789C174.56 70.9088 174.541 71.4381 174.521 71.9674Z" fill="#05162E"/>
<path fill-rule="evenodd" clip-rule="evenodd" d="M134.352 132.486C134.03 132.49 133.709 132.493 133.391 132.496C133.713 132.494 134.032 132.49 134.352 132.486Z" fill="#05162E"/>
<path fill-rule="evenodd" clip-rule="evenodd" d="M126.984 145.467C127.412 145.501 127.839 145.536 128.266 145.57C127.838 145.536 127.412 145.501 126.984 145.467Z" fill="#05162E"/>
<path fill-rule="evenodd" clip-rule="evenodd" d="M126.173 161.562C126.18 161.138 126.187 160.714 126.193 160.291C126.187 160.715 126.18 161.139 126.173 161.562Z" fill="#05162E"/>
<path fill-rule="evenodd" clip-rule="evenodd" d="M162.859 144.626C163.286 144.585 163.714 144.544 164.141 144.502C163.713 144.544 163.286 144.585 162.859 144.626Z" fill="#05162E"/>
<path fill-rule="evenodd" clip-rule="evenodd" d="M192.13 137.099C192.155 136.675 192.181 136.251 192.206 135.828C192.181 136.253 192.155 136.676 192.13 137.099Z" fill="#05162E"/>
<path fill-rule="evenodd" clip-rule="evenodd" d="M197.773 78.5301C198.201 78.4971 198.627 78.464 199.055 78.4316C198.627 78.464 198.201 78.4971 197.773 78.5301Z" fill="#05162E"/>
<path fill-rule="evenodd" clip-rule="evenodd" d="M154.211 134.085C153.89 134.082 153.568 134.079 153.25 134.076C153.573 134.079 153.892 134.082 154.211 134.085Z" fill="#05162E"/>
<path fill-rule="evenodd" clip-rule="evenodd" d="M126.207 185.391C126.191 185.072 126.176 184.754 126.16 184.438C126.176 184.756 126.191 185.073 126.207 185.391Z" fill="#05162E"/>
<path fill-rule="evenodd" clip-rule="evenodd" d="M162.12 169.188C162.82 170.909 162.427 169.69 162.445 170.088C161.849 170.167 161.74 169.867 162.12 169.188Z" fill="#05162E"/>
<path fill-rule="evenodd" clip-rule="evenodd" d="M132.75 132.509C132.429 132.498 132.107 132.486 131.789 132.475C132.112 132.486 132.431 132.497 132.75 132.509Z" fill="#05162E"/>
<path fill-rule="evenodd" clip-rule="evenodd" d="M198.224 100.243C198.244 99.8197 198.264 99.3958 198.284 98.9727C198.264 99.3968 198.244 99.8203 198.224 100.243Z" fill="#05162E"/>
<path fill-rule="evenodd" clip-rule="evenodd" d="M126.185 182.212C126.184 181.788 126.183 181.365 126.182 180.941C126.183 181.366 126.184 181.789 126.185 182.212Z" fill="#05162E"/>
<path fill-rule="evenodd" clip-rule="evenodd" d="M126.15 172.682C126.172 172.364 126.195 172.046 126.217 171.729C126.195 172.047 126.172 172.365 126.15 172.682Z" fill="#05162E"/>
<path fill-rule="evenodd" clip-rule="evenodd" d="M192.764 131.063C192.793 130.744 192.823 130.426 192.853 130.109C192.823 130.428 192.793 130.745 192.764 131.063Z" fill="#05162E"/>
<path fill-rule="evenodd" clip-rule="evenodd" d="M121.977 173.635C122.005 173.953 122.034 174.271 122.062 174.588C122.033 174.27 122.005 173.952 121.977 173.635Z" fill="#05162E"/>
<path fill-rule="evenodd" clip-rule="evenodd" d="M121.332 171.094C121.363 171.412 121.394 171.73 121.426 172.047C121.394 171.728 121.363 171.411 121.332 171.094Z" fill="#05162E"/>
<path fill-rule="evenodd" clip-rule="evenodd" d="M185.406 127.566C185.43 127.249 185.453 126.931 185.477 126.613C185.453 126.932 185.429 127.249 185.406 127.566Z" fill="#05162E"/>
<path fill-rule="evenodd" clip-rule="evenodd" d="M21.9219 170.667C22.3485 170.633 22.7758 170.599 23.2031 170.566C22.7749 170.599 22.3482 170.633 21.9219 170.667Z" fill="#05162E"/>
<path fill-rule="evenodd" clip-rule="evenodd" d="M182.577 178.4C182.565 178.719 182.552 179.038 182.54 179.354C182.552 179.034 182.565 178.717 182.577 178.4Z" fill="#05162E"/>
<path fill-rule="evenodd" clip-rule="evenodd" d="M187.648 179.354C187.672 179.036 187.695 178.717 187.719 178.4C187.695 178.719 187.672 179.036 187.648 179.354Z" fill="#05162E"/>
<path fill-rule="evenodd" clip-rule="evenodd" d="M185.711 126.297C185.745 125.979 185.779 125.661 185.812 125.344C185.779 125.662 185.745 125.979 185.711 126.297Z" fill="#05162E"/>
<path fill-rule="evenodd" clip-rule="evenodd" d="M24.4844 170.362C24.9117 170.32 25.339 170.278 25.7656 170.236C25.339 170.278 24.911 170.32 24.4844 170.362Z" fill="#05162E"/>
<path fill-rule="evenodd" clip-rule="evenodd" d="M160.297 133.76C160.083 133.762 159.868 133.765 159.656 133.767C159.872 133.765 160.084 133.762 160.297 133.76Z" fill="#05162E"/>
<path fill-rule="evenodd" clip-rule="evenodd" d="M126.185 169.822C126.184 169.504 126.183 169.186 126.182 168.869C126.183 169.188 126.184 169.505 126.185 169.822Z" fill="#05162E"/>
<path fill-rule="evenodd" clip-rule="evenodd" d="M188.349 169.188C188.236 168.859 188.18 168.535 188.398 168.234C188.382 168.553 188.365 168.87 188.349 169.188Z" fill="#05162E"/>
<path fill-rule="evenodd" clip-rule="evenodd" d="M182.893 163.15C182.884 163.468 182.874 163.787 182.866 164.104C182.875 163.785 182.884 163.467 182.893 163.15Z" fill="#05162E"/>
<path fill-rule="evenodd" clip-rule="evenodd" d="M183.169 194.604C183.189 194.921 183.209 195.24 183.229 195.557C183.209 195.238 183.189 194.921 183.169 194.604Z" fill="#05162E"/>
<path fill-rule="evenodd" clip-rule="evenodd" d="M206.742 79.0488C207.063 79.0943 207.383 79.1394 207.703 79.1845C207.382 79.1391 207.062 79.0936 206.742 79.0488Z" fill="#05162E"/>
<path fill-rule="evenodd" clip-rule="evenodd" d="M205.461 79.0778C205.891 79.1035 206.363 78.8986 206.742 79.1988L205.461 79.0778Z" fill="#05162E"/>
<path fill-rule="evenodd" clip-rule="evenodd" d="M150.688 146.157C151.114 146.155 151.542 146.153 151.969 146.15C151.542 146.153 151.114 146.155 150.688 146.157Z" fill="#05162E"/>
<path fill-rule="evenodd" clip-rule="evenodd" d="M160.297 78.7441L161.578 78.8547C161.151 78.8179 160.724 78.781 160.297 78.7441Z" fill="#05162E"/>
<path fill-rule="evenodd" clip-rule="evenodd" d="M139.156 146.07C139.584 146.072 140.011 146.074 140.438 146.076C140.009 146.281 139.582 146.301 139.156 146.07Z" fill="#05162E"/>
<path fill-rule="evenodd" clip-rule="evenodd" d="M127.501 199.369C127.477 199.05 127.453 198.732 127.428 198.416C127.453 198.735 127.477 199.052 127.501 199.369Z" fill="#05162E"/>
<path fill-rule="evenodd" clip-rule="evenodd" d="M174.224 79.2754C174.228 78.957 174.233 78.6393 174.238 78.3223C174.233 78.6409 174.228 78.9583 174.224 79.2754Z" fill="#05162E"/>
<path fill-rule="evenodd" clip-rule="evenodd" d="M147.164 146.204C147.591 146.17 148.018 146.136 148.445 146.102C148.018 146.136 147.591 146.17 147.164 146.204Z" fill="#05162E"/>
<path fill-rule="evenodd" clip-rule="evenodd" d="M183.509 202.229C183.516 202.547 183.524 202.865 183.531 203.182C183.524 202.863 183.516 202.546 183.509 202.229Z" fill="#05162E"/>
<path fill-rule="evenodd" clip-rule="evenodd" d="M184.641 71.2343C185.068 71.194 185.495 71.1536 185.922 71.1133C185.495 71.1536 185.068 71.194 184.641 71.2343Z" fill="#05162E"/>
<path fill-rule="evenodd" clip-rule="evenodd" d="M190.202 152.348C190.231 152.03 190.261 151.712 190.289 151.395C190.26 151.713 190.231 152.03 190.202 152.348Z" fill="#05162E"/>
<path fill-rule="evenodd" clip-rule="evenodd" d="M204.944 67.5195C204.968 67.2012 204.993 66.8835 205.016 66.5664C204.993 66.8848 204.968 67.2021 204.944 67.5195Z" fill="#05162E"/>
<path fill-rule="evenodd" clip-rule="evenodd" d="M174.542 40.1973C174.548 40.5153 174.553 40.8336 174.56 41.1504C174.554 40.8317 174.548 40.5143 174.542 40.1973Z" fill="#05162E"/>
<path fill-rule="evenodd" clip-rule="evenodd" d="M163.18 34.2656C163.607 34.3009 164.034 34.3365 164.461 34.3714C164.034 34.3361 163.607 34.3009 163.18 34.2656Z" fill="#05162E"/>
<path fill-rule="evenodd" clip-rule="evenodd" d="M99.1172 214.839C99.5445 214.798 99.9711 214.756 100.398 214.715C99.9711 214.756 99.5445 214.798 99.1172 214.839Z" fill="#05162E"/>
<path fill-rule="evenodd" clip-rule="evenodd" d="M85.0234 218.977C85.4511 218.759 85.8777 218.821 86.3047 218.979C85.8777 218.978 85.4501 218.978 85.0234 218.977Z" fill="#05162E"/>
<path fill-rule="evenodd" clip-rule="evenodd" d="M251.266 200.538C252.013 200.499 252.761 200.462 253.508 200.424C252.761 200.462 252.013 200.5 251.266 200.538Z" fill="#05162E"/>
<path fill-rule="evenodd" clip-rule="evenodd" d="M251.266 195.064C250.837 195.074 250.409 195.084 249.984 195.094C250.414 195.084 250.84 195.074 251.266 195.064Z" fill="#05162E"/>
<path fill-rule="evenodd" clip-rule="evenodd" d="M244.859 188.764C245.393 188.723 245.927 188.683 246.461 188.643C245.963 188.953 245.393 188.723 244.859 188.764Z" fill="#05162E"/>
<path fill-rule="evenodd" clip-rule="evenodd" d="M238.773 189.42C239.307 189.381 239.841 189.343 240.375 189.305C239.841 189.343 239.307 189.381 238.773 189.42Z" fill="#05162E"/>
<path fill-rule="evenodd" clip-rule="evenodd" d="M229.805 195.13C230.232 195.097 230.659 195.064 231.086 195.031C230.659 195.064 230.232 195.097 229.805 195.13Z" fill="#05162E"/>
<path fill-rule="evenodd" clip-rule="evenodd" d="M232.047 195.13C232.474 195.096 232.901 195.063 233.328 195.029C232.901 195.063 232.474 195.096 232.047 195.13Z" fill="#05162E"/>
<path fill-rule="evenodd" clip-rule="evenodd" d="M233.648 194.82C234.075 194.782 234.502 194.745 234.93 194.707C234.503 194.745 234.076 194.782 233.648 194.82Z" fill="#05162E"/>
<path fill-rule="evenodd" clip-rule="evenodd" d="M235.891 183.957C235.569 183.959 235.248 183.961 234.93 183.963C235.252 183.96 235.572 183.959 235.891 183.957Z" fill="#05162E"/>
<path fill-rule="evenodd" clip-rule="evenodd" d="M243.898 201.461C244.325 201.425 244.753 201.389 245.18 201.354C244.781 201.631 244.331 201.471 243.898 201.461Z" fill="#05162E"/>
<path fill-rule="evenodd" clip-rule="evenodd" d="M231.727 176.078C232.154 176.038 232.581 175.997 233.008 175.957C232.581 175.997 232.154 176.038 231.727 176.078Z" fill="#05162E"/>
<path fill-rule="evenodd" clip-rule="evenodd" d="M230.125 170.935C229.803 170.935 229.482 170.934 229.164 170.934C229.487 170.934 229.806 170.935 230.125 170.935Z" fill="#05162E"/>
<path fill-rule="evenodd" clip-rule="evenodd" d="M226.922 171.568C226.708 171.57 226.493 171.571 226.281 171.571C226.497 171.57 226.709 171.569 226.922 171.568Z" fill="#05162E"/>
<path fill-rule="evenodd" clip-rule="evenodd" d="M219.234 172.452C219.127 172.714 218.561 172.68 218.595 172.412C218.808 172.425 219.021 172.439 219.234 172.452Z" fill="#05162E"/>
<path fill-rule="evenodd" clip-rule="evenodd" d="M204.32 173.635C204.333 173.952 204.346 174.271 204.359 174.588C204.346 174.27 204.333 173.952 204.32 173.635Z" fill="#05162E"/>
<path fill-rule="evenodd" clip-rule="evenodd" d="M248.062 175.319C248.383 175.313 248.703 175.308 249.023 175.303C248.707 175.527 248.386 175.496 248.062 175.319Z" fill="#05162E"/>
<path fill-rule="evenodd" clip-rule="evenodd" d="M235.891 170.611C235.676 170.614 235.462 170.618 235.25 170.62C235.466 170.617 235.678 170.614 235.891 170.611Z" fill="#05162E"/>
<path fill-rule="evenodd" clip-rule="evenodd" d="M227.562 190.691C227.99 190.651 228.417 190.612 228.844 190.572C228.416 190.612 227.99 190.651 227.562 190.691Z" fill="#05162E"/>
<path fill-rule="evenodd" clip-rule="evenodd" d="M222.438 191.324L223.719 191.213L222.438 191.324Z" fill="#05162E"/>
<path fill-rule="evenodd" clip-rule="evenodd" d="M247.422 200.858C247.849 200.818 248.276 200.778 248.703 200.738C248.276 200.778 247.849 200.818 247.422 200.858Z" fill="#05162E"/>
<path fill-rule="evenodd" clip-rule="evenodd" d="M232.047 202.771C232.475 202.616 232.902 202.563 233.328 202.775C232.901 202.774 232.474 202.772 232.047 202.771Z" fill="#05162E"/>
<path fill-rule="evenodd" clip-rule="evenodd" d="M231.368 158.978L230.766 158.771C231.513 158.762 232.261 158.753 233.008 158.744C233.009 158.744 231.454 158.985 231.368 158.978Z" fill="#05162E"/>
<path fill-rule="evenodd" clip-rule="evenodd" d="M225.641 153.46C225.105 153.46 224.57 153.459 224.039 153.459C224.575 153.46 225.108 153.46 225.641 153.46Z" fill="#05162E"/>
<path fill-rule="evenodd" clip-rule="evenodd" d="M205.461 165.605C205.994 165.394 206.528 165.435 207.062 165.599C206.529 165.601 205.995 165.603 205.461 165.605Z" fill="#05162E"/>
<path fill-rule="evenodd" clip-rule="evenodd" d="M237.812 160.443C237.491 160.447 237.17 160.451 236.852 160.455C237.174 160.451 237.493 160.447 237.812 160.443Z" fill="#05162E"/>
<path fill-rule="evenodd" clip-rule="evenodd" d="M231.086 156.268C231.62 156.302 232.154 156.337 232.688 156.372C232.154 156.337 231.62 156.302 231.086 156.268Z" fill="#05162E"/>
<path fill-rule="evenodd" clip-rule="evenodd" d="M224.359 159.554C224.893 159.516 225.427 159.479 225.961 159.441C225.427 159.479 224.893 159.516 224.359 159.554Z" fill="#05162E"/>
<path fill-rule="evenodd" clip-rule="evenodd" d="M228.523 158.916C228.95 158.88 229.377 158.844 229.805 158.809C229.377 158.844 228.95 158.88 228.523 158.916Z" fill="#05162E"/>
<path fill-rule="evenodd" clip-rule="evenodd" d="M225 155.949C225.427 155.984 225.854 156.019 226.281 156.053C225.854 156.018 225.427 155.984 225 155.949Z" fill="#05162E"/>
<path fill-rule="evenodd" clip-rule="evenodd" d="M218.914 162.045C218.699 162.04 218.485 162.036 218.273 162.031C218.489 162.036 218.701 162.04 218.914 162.045Z" fill="#05162E"/>
<path fill-rule="evenodd" clip-rule="evenodd" d="M225.641 158.881C225.426 158.868 225.212 158.855 225 158.842C225.215 158.855 225.428 158.868 225.641 158.881Z" fill="#05162E"/>
<path fill-rule="evenodd" clip-rule="evenodd" d="M221.477 158.869C221.262 158.863 221.047 158.857 220.836 158.852C221.051 158.858 221.264 158.863 221.477 158.869Z" fill="#05162E"/>
<path fill-rule="evenodd" clip-rule="evenodd" d="M233.008 158.574C233.008 158.656 233.973 158.239 233.969 158.627L233.008 158.574Z" fill="#05162E"/>
<path fill-rule="evenodd" clip-rule="evenodd" d="M229.484 153.459C229.27 153.459 229.055 153.46 228.844 153.46C229.059 153.46 229.272 153.459 229.484 153.459Z" fill="#05162E"/>
<path fill-rule="evenodd" clip-rule="evenodd" d="M115.773 138.393C116.12 136.989 116.026 135.891 117.261 136.788C117.939 137.281 119.057 139.779 118.972 140.625C118.868 141.668 118.388 142.084 117.397 141.752C116.259 141.37 115.807 139.444 115.773 138.393Z" fill="#05162E"/>
<path fill-rule="evenodd" clip-rule="evenodd" d="M178.18 129.87C181.049 129.87 179.797 132.898 177.406 132.965C176.307 132.997 174.726 132.782 175.082 131.323C175.273 130.544 178.06 129.494 178.18 129.87Z" fill="#05162E"/>
<path fill-rule="evenodd" clip-rule="evenodd" d="M147.412 135.828C149.483 136.822 146.569 141.186 144.688 140.105C142.278 138.723 146.561 136.451 147.412 135.828Z" fill="#05162E"/>
<path fill-rule="evenodd" clip-rule="evenodd" d="M142.373 139.957C143.051 140.69 146.106 143.176 144.422 144.176C142.352 145.405 140.776 141.347 142.373 139.957Z" fill="#05162E"/>
<path fill-rule="evenodd" clip-rule="evenodd" d="M107.663 138.052C106.989 136.76 107.916 133.379 109.973 133.997C112.043 134.619 108.802 137.709 107.663 138.052Z" fill="#05162E"/>
<path fill-rule="evenodd" clip-rule="evenodd" d="M153.359 138.797C154.702 138.26 154.446 139.847 154.649 140.359C154.879 140.94 156.062 142.357 155.765 142.976C155.325 143.894 154.273 143.308 153.701 142.712C152.7 141.667 152.771 139.99 153.359 138.797Z" fill="#05162E"/>
<path fill-rule="evenodd" clip-rule="evenodd" d="M132.891 140.267C131.772 140.267 129.099 137.066 130.67 136.528C132.618 135.862 134.248 140.502 132.891 140.267Z" fill="#05162E"/>
<path fill-rule="evenodd" clip-rule="evenodd" d="M171.574 135.191C172.6 135.442 173.957 138.321 172.411 138.655C170.701 139.025 170.396 135.988 171.574 135.191Z" fill="#05162E"/>
<path fill-rule="evenodd" clip-rule="evenodd" d="M165.359 140.593C164.555 139.057 164.357 135.77 166.32 138.409C166.745 138.98 167.184 138.749 166.966 139.692C166.775 140.515 166.013 140.593 165.359 140.593Z" fill="#05162E"/>
<path fill-rule="evenodd" clip-rule="evenodd" d="M123.008 132.65C123.827 133.874 123.585 137.71 121.873 135.441C121.144 134.477 121.646 132.696 123.008 132.65Z" fill="#05162E"/>
<path fill-rule="evenodd" clip-rule="evenodd" d="M164.201 17.3534C165.791 16.9462 166.172 20.6643 165.245 21.0742C163.947 21.6477 164.109 17.9753 164.201 17.3534Z" fill="#05162E"/>
<path fill-rule="evenodd" clip-rule="evenodd" d="M264.769 206.247C263.293 206.162 261.226 205.762 263.461 204.724C264.879 204.066 266.988 204.02 268.485 204.29C269.518 204.476 271.066 205.325 269.491 206.425C268.569 207.068 265.89 206.279 264.769 206.247Z" fill="#05162E"/>
<path fill-rule="evenodd" clip-rule="evenodd" d="M263.115 208.901C262.688 208.853 262.262 208.805 261.836 208.758C262.178 208.142 263.172 208.013 263.115 208.901Z" fill="#05162E"/>
<path fill-rule="evenodd" clip-rule="evenodd" d="M265.039 206.186C265.467 206.195 265.896 206.205 266.32 206.214C265.891 206.204 265.465 206.195 265.039 206.186Z" fill="#05162E"/>
</svg>
